STARTFONT 2.1
FONT -Monotype-Plantin-Bold-R-Normal--12-120-75-75-P-76-iso8859-5
SIZE 12 75 75
FONTBOUNDINGBOX 17 15 -1 -3

STARTPROPERTIES 24
FOUNDRY "Monotype"
FAMILY_NAME "Plantin"
WEIGHT_NAME "Bold"
SLANT "R"
SETWIDTH_NAME "Normal"
ADD_STYLE_NAME ""
PIXEL_SIZE 12
POINT_SIZE 120
RESOLUTION_X 75
RESOLUTION_Y 75
SPACING "P"
AVERAGE_WIDTH 76
CHARSET_REGISTRY "iso8859"
CHARSET_ENCODING "5"
FACE_NAME "Plantin Bold ISO Latin Cyrillic"
_DEC_DEVICE_FONTNAMES "PS=plantin-b-latcyrillic"
COPYRIGHT "Copyright (c) 1994 Monotype Typography Ltd."
CAP_HEIGHT 10
X_HEIGHT 6
WEIGHT 10
QUAD_WIDTH 9
DEFAULT_CHAR 160
FONT_DESCENT 3
FONT_ASCENT 12
ENDPROPERTIES

CHARS 191

STARTCHAR space
ENCODING 32
SWIDTH 250 0
DWIDTH 3 0
BBX 0 0 0 0
BITMAP
ENDCHAR

STARTCHAR exclam
ENCODING 33
SWIDTH 344 0
DWIDTH 4 0
BBX 2 9 1 0
BITMAP
C0
C0
C0
C0
C0
40
00
C0
C0
ENDCHAR

STARTCHAR quotedbl
ENCODING 34
SWIDTH 552 0
DWIDTH 7 0
BBX 5 4 1 5
BITMAP
D8
D8
D8
48
ENDCHAR

STARTCHAR numbersign
ENCODING 35
SWIDTH 500 0
DWIDTH 7 0
BBX 9 9 -1 0
BITMAP
0900
0900
7F80
1200
1200
2400
FF00
2400
2400
ENDCHAR

STARTCHAR dollar
ENCODING 36
SWIDTH 521 0
DWIDTH 7 0
BBX 6 10 1 -1
BITMAP
10
78
D4
D0
78
3C
2C
AC
78
20
ENDCHAR

STARTCHAR percent
ENCODING 37
SWIDTH 927 0
DWIDTH 12 0
BBX 11 9 1 0
BITMAP
7100
D900
DA00
DA00
75C0
0B60
0B60
1360
11C0
ENDCHAR

STARTCHAR ampersand
ENCODING 38
SWIDTH 781 0
DWIDTH 10 0
BBX 10 9 0 0
BITMAP
1C00
3200
3200
1DC0
3C80
4680
C300
E780
7DC0
ENDCHAR

STARTCHAR quoteright
ENCODING 39
SWIDTH 344 0
DWIDTH 4 0
BBX 2 4 1 5
BITMAP
C0
C0
40
80
ENDCHAR

STARTCHAR parenleft
ENCODING 40
SWIDTH 417 0
DWIDTH 5 0
BBX 4 12 1 -3
BITMAP
10
20
60
40
C0
C0
C0
C0
40
60
20
10
ENDCHAR

STARTCHAR parenright
ENCODING 41
SWIDTH 417 0
DWIDTH 5 0
BBX 4 12 1 -3
BITMAP
80
40
60
20
30
30
30
30
20
60
40
80
ENDCHAR

STARTCHAR asterisk
ENCODING 42
SWIDTH 510 0
DWIDTH 7 0
BBX 7 6 0 3
BITMAP
10
92
7C
38
38
44
ENDCHAR

STARTCHAR plus
ENCODING 43
SWIDTH 667 0
DWIDTH 9 0
BBX 7 7 1 1
BITMAP
10
10
10
FE
10
10
10
ENDCHAR

STARTCHAR comma
ENCODING 44
SWIDTH 344 0
DWIDTH 4 0
BBX 2 4 1 -2
BITMAP
C0
C0
40
80
ENDCHAR

STARTCHAR minus
ENCODING 45
SWIDTH 667 0
DWIDTH 9 0
BBX 7 1 1 4
BITMAP
FE
ENDCHAR

STARTCHAR period
ENCODING 46
SWIDTH 344 0
DWIDTH 4 0
BBX 2 2 1 0
BITMAP
C0
C0
ENDCHAR

STARTCHAR slash
ENCODING 47
SWIDTH 281 0
DWIDTH 4 0
BBX 4 9 0 0
BITMAP
10
10
20
20
40
40
40
80
80
ENDCHAR

STARTCHAR zero
ENCODING 48
SWIDTH 521 0
DWIDTH 7 0
BBX 6 9 1 0
BITMAP
30
48
CC
CC
CC
CC
CC
48
30
ENDCHAR

STARTCHAR one
ENCODING 49
SWIDTH 521 0
DWIDTH 7 0
BBX 4 9 2 0
BITMAP
20
E0
60
60
60
60
60
60
F0
ENDCHAR

STARTCHAR two
ENCODING 50
SWIDTH 521 0
DWIDTH 7 0
BBX 5 9 1 0
BITMAP
70
98
18
18
10
20
48
F8
F8
ENDCHAR

STARTCHAR three
ENCODING 51
SWIDTH 521 0
DWIDTH 7 0
BBX 6 9 1 0
BITMAP
38
4C
0C
18
3C
0C
0C
88
70
ENDCHAR

STARTCHAR four
ENCODING 52
SWIDTH 521 0
DWIDTH 7 0
BBX 6 9 1 0
BITMAP
08
18
38
58
98
FC
FC
18
18
ENDCHAR

STARTCHAR five
ENCODING 53
SWIDTH 521 0
DWIDTH 7 0
BBX 6 9 1 0
BITMAP
3C
78
40
78
5C
0C
0C
88
70
ENDCHAR

STARTCHAR six
ENCODING 54
SWIDTH 521 0
DWIDTH 7 0
BBX 6 9 1 0
BITMAP
3C
60
C0
C0
F8
CC
CC
4C
38
ENDCHAR

STARTCHAR seven
ENCODING 55
SWIDTH 521 0
DWIDTH 7 0
BBX 6 9 1 0
BITMAP
7C
FC
8C
08
18
18
10
30
20
ENDCHAR

STARTCHAR eight
ENCODING 56
SWIDTH 521 0
DWIDTH 7 0
BBX 6 9 1 0
BITMAP
78
C4
C4
F8
78
9C
8C
8C
78
ENDCHAR

STARTCHAR nine
ENCODING 57
SWIDTH 521 0
DWIDTH 7 0
BBX 6 9 1 0
BITMAP
70
C8
CC
CC
7C
0C
0C
18
F0
ENDCHAR

STARTCHAR colon
ENCODING 58
SWIDTH 344 0
DWIDTH 4 0
BBX 2 6 1 0
BITMAP
C0
C0
00
00
C0
C0
ENDCHAR

STARTCHAR semicolon
ENCODING 59
SWIDTH 344 0
DWIDTH 4 0
BBX 2 8 1 -2
BITMAP
C0
C0
00
00
C0
C0
40
80
ENDCHAR

STARTCHAR less
ENCODING 60
SWIDTH 667 0
DWIDTH 9 0
BBX 7 7 1 1
BITMAP
02
0E
38
E0
38
0E
02
ENDCHAR

STARTCHAR equal
ENCODING 61
SWIDTH 667 0
DWIDTH 9 0
BBX 7 3 1 3
BITMAP
FE
00
FE
ENDCHAR

STARTCHAR greater
ENCODING 62
SWIDTH 667 0
DWIDTH 9 0
BBX 7 7 1 1
BITMAP
80
E0
38
0E
38
E0
80
ENDCHAR

STARTCHAR question
ENCODING 63
SWIDTH 458 0
DWIDTH 6 0
BBX 5 9 1 0
BITMAP
70
98
18
18
30
20
00
60
60
ENDCHAR

STARTCHAR at
ENCODING 64
SWIDTH 927 0
DWIDTH 12 0
BBX 11 12 1 -3
BITMAP
0F00
30C0
4040
47A0
99A0
9B20
B320
B640
5BA0
4020
30C0
0F00
ENDCHAR

STARTCHAR A
ENCODING 65
SWIDTH 781 0
DWIDTH 10 0
BBX 10 9 0 0
BITMAP
0C00
0C00
1600
1600
2300
3F00
4300
4180
E3C0
ENDCHAR

STARTCHAR B
ENCODING 66
SWIDTH 781 0
DWIDTH 10 0
BBX 9 9 1 0
BITMAP
FF00
6180
6180
6180
7E00
6180
6180
6180
FF00
ENDCHAR

STARTCHAR C
ENCODING 67
SWIDTH 802 0
DWIDTH 10 0
BBX 9 9 1 0
BITMAP
1F00
7180
6080
C000
C000
C000
6080
7180
1F00
ENDCHAR

STARTCHAR D
ENCODING 68
SWIDTH 875 0
DWIDTH 11 0
BBX 10 9 1 0
BITMAP
FE00
6380
6180
60C0
60C0
60C0
6180
6380
FE00
ENDCHAR

STARTCHAR E
ENCODING 69
SWIDTH 750 0
DWIDTH 10 0
BBX 9 9 1 0
BITMAP
FF00
6180
6000
6200
7E00
6200
6080
6180
FF00
ENDCHAR

STARTCHAR F
ENCODING 70
SWIDTH 687 0
DWIDTH 9 0
BBX 8 9 1 0
BITMAP
FE
63
60
62
7E
62
60
60
F0
ENDCHAR

STARTCHAR G
ENCODING 71
SWIDTH 844 0
DWIDTH 11 0
BBX 10 9 1 0
BITMAP
1F00
7180
6080
C000
C3C0
C180
6180
7180
1F00
ENDCHAR

STARTCHAR H
ENCODING 72
SWIDTH 875 0
DWIDTH 11 0
BBX 10 9 1 0
BITMAP
F3C0
6180
6180
6180
7F80
6180
6180
6180
F3C0
ENDCHAR

STARTCHAR I
ENCODING 73
SWIDTH 406 0
DWIDTH 5 0
BBX 4 9 1 0
BITMAP
F0
60
60
60
60
60
60
60
F0
ENDCHAR

STARTCHAR J
ENCODING 74
SWIDTH 406 0
DWIDTH 5 0
BBX 5 12 0 -3
BITMAP
78
30
30
30
30
30
30
30
30
30
B0
60
ENDCHAR

STARTCHAR K
ENCODING 75
SWIDTH 781 0
DWIDTH 10 0
BBX 9 9 1 0
BITMAP
F780
6200
6400
6800
7C00
6C00
6600
6700
F380
ENDCHAR

STARTCHAR L
ENCODING 76
SWIDTH 687 0
DWIDTH 9 0
BBX 8 9 1 0
BITMAP
F0
60
60
60
60
60
61
63
FE
ENDCHAR

STARTCHAR M
ENCODING 77
SWIDTH 1010 0
DWIDTH 13 0
BBX 13 9 0 0
BITMAP
7070
3060
38E0
28E0
2D60
4D30
4730
4630
E678
ENDCHAR

STARTCHAR N
ENCODING 78
SWIDTH 792 0
DWIDTH 10 0
BBX 10 9 0 0
BITMAP
E1C0
7080
7880
5C80
4E80
4780
4380
4180
E080
ENDCHAR

STARTCHAR O
ENCODING 79
SWIDTH 875 0
DWIDTH 11 0
BBX 10 9 1 0
BITMAP
1E00
7380
6180
C0C0
C0C0
C0C0
6180
7380
1E00
ENDCHAR

STARTCHAR P
ENCODING 80
SWIDTH 729 0
DWIDTH 9 0
BBX 8 9 1 0
BITMAP
FE
63
63
63
6E
60
60
60
F0
ENDCHAR

STARTCHAR Q
ENCODING 81
SWIDTH 865 0
DWIDTH 11 0
BBX 11 12 1 -3
BITMAP
1E00
7380
6180
C0C0
C0C0
C0C0
6180
7380
1E00
0E00
0380
00E0
ENDCHAR

STARTCHAR R
ENCODING 82
SWIDTH 771 0
DWIDTH 10 0
BBX 9 9 1 0
BITMAP
FE00
6700
6300
6600
7C00
6C00
6600
6700
F380
ENDCHAR

STARTCHAR S
ENCODING 83
SWIDTH 656 0
DWIDTH 8 0
BBX 7 9 1 0
BITMAP
7C
C6
C2
E0
7C
1E
86
C6
7C
ENDCHAR

STARTCHAR T
ENCODING 84
SWIDTH 740 0
DWIDTH 10 0
BBX 10 9 0 0
BITMAP
7F80
CCC0
0C00
0C00
0C00
0C00
0C00
0C00
1E00
ENDCHAR

STARTCHAR U
ENCODING 85
SWIDTH 833 0
DWIDTH 11 0
BBX 10 9 1 0
BITMAP
F1C0
6080
6080
6080
6080
6080
6080
3100
1E00
ENDCHAR

STARTCHAR V
ENCODING 86
SWIDTH 729 0
DWIDTH 9 0
BBX 9 9 0 0
BITMAP
F380
6100
6100
3200
3200
1C00
1C00
0800
0800
ENDCHAR

STARTCHAR W
ENCODING 87
SWIDTH 1031 0
DWIDTH 13 0
BBX 13 9 0 0
BITMAP
F7B8
6310
6310
33A0
35A0
1DC0
18C0
0880
0880
ENDCHAR

STARTCHAR X
ENCODING 88
SWIDTH 781 0
DWIDTH 11 0
BBX 10 9 1 0
BITMAP
FBC0
7100
3A00
1C00
0C00
0E00
1700
2380
F7C0
ENDCHAR

STARTCHAR Y
ENCODING 89
SWIDTH 729 0
DWIDTH 9 0
BBX 10 9 0 0
BITMAP
F3C0
6180
3100
3200
1E00
1C00
0C00
0C00
1E00
ENDCHAR

STARTCHAR Z
ENCODING 90
SWIDTH 687 0
DWIDTH 9 0
BBX 8 9 1 0
BITMAP
7F
C3
86
0C
18
30
61
C3
FE
ENDCHAR

STARTCHAR bracketleft
ENCODING 91
SWIDTH 396 0
DWIDTH 5 0
BBX 3 12 1 -3
BITMAP
E0
C0
C0
C0
C0
C0
C0
C0
C0
C0
C0
E0
ENDCHAR

STARTCHAR backslash
ENCODING 92
SWIDTH 281 0
DWIDTH 4 0
BBX 4 9 0 0
BITMAP
80
80
40
40
40
20
20
10
10
ENDCHAR

STARTCHAR bracketright
ENCODING 93
SWIDTH 396 0
DWIDTH 5 0
BBX 3 12 1 -3
BITMAP
E0
60
60
60
60
60
60
60
60
60
60
E0
ENDCHAR

STARTCHAR asciicircum
ENCODING 94
SWIDTH 583 0
DWIDTH 8 0
BBX 6 5 1 4
BITMAP
30
30
48
48
84
ENDCHAR

STARTCHAR underscore
ENCODING 95
SWIDTH 500 0
DWIDTH 7 0
BBX 7 1 0 -2
BITMAP
FE
ENDCHAR

STARTCHAR quoteleft
ENCODING 96
SWIDTH 344 0
DWIDTH 4 0
BBX 2 4 1 5
BITMAP
40
80
C0
C0
ENDCHAR

STARTCHAR a
ENCODING 97
SWIDTH 562 0
DWIDTH 7 0
BBX 7 6 0 0
BITMAP
78
CC
3C
CC
CC
76
ENDCHAR

STARTCHAR b
ENCODING 98
SWIDTH 604 0
DWIDTH 7 0
BBX 7 9 0 0
BITMAP
20
E0
60
6C
76
66
66
66
3C
ENDCHAR

STARTCHAR c
ENCODING 99
SWIDTH 521 0
DWIDTH 6 0
BBX 5 6 1 0
BITMAP
78
C8
C0
C0
C8
70
ENDCHAR

STARTCHAR d
ENCODING 100
SWIDTH 615 0
DWIDTH 8 0
BBX 7 9 1 0
BITMAP
04
1C
0C
6C
DC
CC
CC
DC
6E
ENDCHAR

STARTCHAR e
ENCODING 101
SWIDTH 521 0
DWIDTH 7 0
BBX 6 6 1 0
BITMAP
78
CC
FC
C0
C4
78
ENDCHAR

STARTCHAR f
ENCODING 102
SWIDTH 354 0
DWIDTH 5 0
BBX 6 9 1 0
BITMAP
38
6C
60
F0
60
60
60
60
F0
ENDCHAR

STARTCHAR g
ENCODING 103
SWIDTH 552 0
DWIDTH 7 0
BBX 7 8 1 -2
BITMAP
76
CC
CC
78
C0
78
CC
78
ENDCHAR

STARTCHAR h
ENCODING 104
SWIDTH 625 0
DWIDTH 8 0
BBX 8 9 0 0
BITMAP
20
E0
60
6C
76
66
66
66
F7
ENDCHAR

STARTCHAR i
ENCODING 105
SWIDTH 333 0
DWIDTH 5 0
BBX 4 9 1 0
BITMAP
60
60
00
20
E0
60
60
60
F0
ENDCHAR

STARTCHAR j
ENCODING 106
SWIDTH 313 0
DWIDTH 5 0
BBX 3 12 1 -3
BITMAP
60
60
00
20
E0
60
60
60
60
60
40
80
ENDCHAR

STARTCHAR k
ENCODING 107
SWIDTH 552 0
DWIDTH 7 0
BBX 7 9 0 0
BITMAP
20
E0
60
6E
64
78
6C
66
F6
ENDCHAR

STARTCHAR l
ENCODING 108
SWIDTH 312 0
DWIDTH 4 0
BBX 4 9 0 0
BITMAP
20
E0
60
60
60
60
60
60
F0
ENDCHAR

STARTCHAR m
ENCODING 109
SWIDTH 979 0
DWIDTH 13 0
BBX 12 6 1 0
BITMAP
2EC0
F760
6660
6660
6660
F770
ENDCHAR

STARTCHAR n
ENCODING 110
SWIDTH 625 0
DWIDTH 8 0
BBX 8 6 0 0
BITMAP
2C
F6
66
66
66
F7
ENDCHAR

STARTCHAR o
ENCODING 111
SWIDTH 573 0
DWIDTH 7 0
BBX 6 6 1 0
BITMAP
78
CC
CC
CC
CC
78
ENDCHAR

STARTCHAR p
ENCODING 112
SWIDTH 615 0
DWIDTH 7 0
BBX 7 9 0 -3
BITMAP
2C
F6
66
66
76
6C
60
60
F0
ENDCHAR

STARTCHAR q
ENCODING 113
SWIDTH 615 0
DWIDTH 8 0
BBX 7 9 1 -3
BITMAP
74
DC
CC
CC
DC
6C
0C
0C
1E
ENDCHAR

STARTCHAR r
ENCODING 114
SWIDTH 479 0
DWIDTH 6 0
BBX 6 6 1 0
BITMAP
58
EC
60
60
60
F0
ENDCHAR

STARTCHAR s
ENCODING 115
SWIDTH 458 0
DWIDTH 6 0
BBX 5 6 1 0
BITMAP
78
C0
F0
78
18
F0
ENDCHAR

STARTCHAR t
ENCODING 116
SWIDTH 375 0
DWIDTH 5 0
BBX 5 8 0 0
BITMAP
20
60
F8
60
60
60
68
30
ENDCHAR

STARTCHAR u
ENCODING 117
SWIDTH 625 0
DWIDTH 8 0
BBX 8 6 0 0
BITMAP
EE
66
66
66
6E
37
ENDCHAR

STARTCHAR v
ENCODING 118
SWIDTH 542 0
DWIDTH 7 0
BBX 8 6 0 0
BITMAP
E7
62
34
38
18
10
ENDCHAR

STARTCHAR w
ENCODING 119
SWIDTH 771 0
DWIDTH 10 0
BBX 11 6 0 0
BITMAP
EEE0
6640
6640
3B80
1980
1100
ENDCHAR

STARTCHAR x
ENCODING 120
SWIDTH 552 0
DWIDTH 8 0
BBX 7 6 1 0
BITMAP
F6
64
38
38
4C
EE
ENDCHAR

STARTCHAR y
ENCODING 121
SWIDTH 542 0
DWIDTH 7 0
BBX 8 9 0 -3
BITMAP
F7
62
32
34
1C
08
18
50
60
ENDCHAR

STARTCHAR z
ENCODING 122
SWIDTH 510 0
DWIDTH 7 0
BBX 6 6 1 0
BITMAP
FC
8C
38
70
C4
FC
ENDCHAR

STARTCHAR braceleft
ENCODING 123
SWIDTH 396 0
DWIDTH 5 0
BBX 4 12 1 -3
BITMAP
30
60
60
60
40
80
80
40
60
60
60
30
ENDCHAR

STARTCHAR bar
ENCODING 124
SWIDTH 219 0
DWIDTH 3 0
BBX 1 12 1 -3
BITMAP
80
80
80
80
80
80
80
80
80
80
80
80
ENDCHAR

STARTCHAR braceright
ENCODING 125
SWIDTH 396 0
DWIDTH 5 0
BBX 4 12 0 -3
BITMAP
C0
60
60
60
20
10
10
20
60
60
60
C0
ENDCHAR

STARTCHAR asciitilde
ENCODING 126
SWIDTH 521 0
DWIDTH 7 0
BBX 7 2 0 3
BITMAP
72
9C
ENDCHAR

STARTCHAR space
ENCODING 160
SWIDTH 250 0
DWIDTH 4 0
BBX 0 0 0 0
BITMAP
ENDCHAR

STARTCHAR afii10023
ENCODING 161
SWIDTH 750 0
DWIDTH 10 0
BBX 9 12 1 0
BITMAP
3300
3300
0000
FF00
6180
6000
6200
7E00
6200
6080
6180
FF00
ENDCHAR

STARTCHAR afii10051
ENCODING 162
SWIDTH 850 0
DWIDTH 11 0
BBX 12 9 -1 0
BITMAP
7F80
CCC0
0C00
0DE0
0E30
0C30
0C30
0CB0
1E60
ENDCHAR

STARTCHAR afii10052
ENCODING 163
SWIDTH 646 0
DWIDTH 8 0
BBX 8 12 1 0
BITMAP
0C
18
00
FE
63
60
60
60
60
60
60
F0
ENDCHAR

STARTCHAR afii10053
ENCODING 164
SWIDTH 813 0
DWIDTH 10 0
BBX 9 9 1 0
BITMAP
1F80
7180
6080
C000
FE00
C000
6080
7180
1F00
ENDCHAR

STARTCHAR afii10054
ENCODING 165
SWIDTH 656 0
DWIDTH 8 0
BBX 7 9 1 0
BITMAP
7C
C6
C2
E0
7C
1E
86
C6
7C
ENDCHAR

STARTCHAR afii10055
ENCODING 166
SWIDTH 406 0
DWIDTH 5 0
BBX 4 9 1 0
BITMAP
F0
60
60
60
60
60
60
60
F0
ENDCHAR

STARTCHAR afii10056
ENCODING 167
SWIDTH 406 0
DWIDTH 5 0
BBX 6 12 0 0
BITMAP
CC
CC
00
78
30
30
30
30
30
30
30
78
ENDCHAR

STARTCHAR afii10057
ENCODING 168
SWIDTH 406 0
DWIDTH 5 0
BBX 5 12 0 -3
BITMAP
78
30
30
30
30
30
30
30
30
30
B0
60
ENDCHAR

STARTCHAR afii10058
ENCODING 169
SWIDTH 1086 0
DWIDTH 14 0
BBX 14 9 0 0
BITMAP
3FC0
1180
1180
1180
11F8
118C
118C
D18C
63F8
ENDCHAR

STARTCHAR afii10059
ENCODING 170
SWIDTH 1095 0
DWIDTH 14 0
BBX 13 9 1 0
BITMAP
F780
6300
6300
6300
7FF0
6318
6318
6318
F7F0
ENDCHAR

STARTCHAR afii10060
ENCODING 171
SWIDTH 854 0
DWIDTH 11 0
BBX 12 9 -1 0
BITMAP
7F80
CCC0
0C00
0DC0
0E60
0C60
0C60
0C60
1EF0
ENDCHAR

STARTCHAR afii10061
ENCODING 172
SWIDTH 781 0
DWIDTH 10 0
BBX 9 12 1 0
BITMAP
0C00
1800
0000
F780
6200
6400
6800
7C00
6C00
6600
6700
F380
ENDCHAR

STARTCHAR hyphen
ENCODING 173
SWIDTH 458 0
DWIDTH 6 0
BBX 4 1 1 3
BITMAP
F0
ENDCHAR

STARTCHAR afii10062
ENCODING 174
SWIDTH 750 0
DWIDTH 10 0
BBX 10 12 1 0
BITMAP
1100
0E00
0000
F1C0
6080
3100
3100
1A00
0E00
4C00
6400
3800
ENDCHAR

STARTCHAR afii10145
ENCODING 175
SWIDTH 854 0
DWIDTH 11 0
BBX 10 11 1 -2
BITMAP
F3C0
6180
6180
6180
6180
6180
6180
6180
FFC0
0C00
0C00
ENDCHAR

STARTCHAR afii10017
ENCODING 176
SWIDTH 781 0
DWIDTH 10 0
BBX 10 9 0 0
BITMAP
0C00
0C00
1600
1600
2300
3F00
4300
4180
E3C0
ENDCHAR

STARTCHAR afii10018
ENCODING 177
SWIDTH 740 0
DWIDTH 10 0
BBX 8 9 1 0
BITMAP
FE
63
60
60
7E
63
63
63
FE
ENDCHAR

STARTCHAR afii10019
ENCODING 178
SWIDTH 781 0
DWIDTH 10 0
BBX 9 9 1 0
BITMAP
FF00
6180
6180
6180
7E00
6180
6180
6180
FF00
ENDCHAR

STARTCHAR afii10020
ENCODING 179
SWIDTH 646 0
DWIDTH 8 0
BBX 8 9 1 0
BITMAP
FE
63
60
60
60
60
60
60
F0
ENDCHAR

STARTCHAR afii10021
ENCODING 180
SWIDTH 781 0
DWIDTH 10 0
BBX 9 11 1 -2
BITMAP
7F80
2300
2300
2300
2300
4300
4300
4300
7F00
C180
8080
ENDCHAR

STARTCHAR afii10022
ENCODING 181
SWIDTH 750 0
DWIDTH 10 0
BBX 9 9 1 0
BITMAP
FF00
6180
6000
6200
7E00
6200
6080
6180
FF00
ENDCHAR

STARTCHAR afii10024
ENCODING 182
SWIDTH 1094 0
DWIDTH 14 0
BBX 14 9 0 0
BITMAP
E79C
3330
3330
1320
1FE0
1B60
3330
6318
E79C
ENDCHAR

STARTCHAR afii10025
ENCODING 183
SWIDTH 750 0
DWIDTH 10 0
BBX 9 9 1 0
BITMAP
FF00
C380
8180
0300
3E00
0300
8180
C380
7F00
ENDCHAR

STARTCHAR afii10026
ENCODING 184
SWIDTH 854 0
DWIDTH 11 0
BBX 10 9 1 0
BITMAP
F3C0
6180
6380
6580
6580
6980
7180
6180
F3C0
ENDCHAR

STARTCHAR afii10027
ENCODING 185
SWIDTH 854 0
DWIDTH 11 0
BBX 10 12 1 0
BITMAP
1100
0E00
0000
F3C0
6180
6380
6580
6580
6980
7180
6180
F3C0
ENDCHAR

STARTCHAR afii10028
ENCODING 186
SWIDTH 781 0
DWIDTH 10 0
BBX 9 9 1 0
BITMAP
F380
6480
6400
6800
7C00
6C00
6600
6700
F380
ENDCHAR

STARTCHAR afii10029
ENCODING 187
SWIDTH 833 0
DWIDTH 10 0
BBX 10 9 0 0
BITMAP
3FC0
1180
1180
1180
1180
1180
1180
D180
63C0
ENDCHAR

STARTCHAR afii10030
ENCODING 188
SWIDTH 1010 0
DWIDTH 13 0
BBX 13 9 0 0
BITMAP
7070
3060
38E0
28E0
2D60
4D30
4730
4630
E678
ENDCHAR

STARTCHAR afii10031
ENCODING 189
SWIDTH 875 0
DWIDTH 11 0
BBX 10 9 1 0
BITMAP
F3C0
6180
6180
6180
7F80
6180
6180
6180
F3C0
ENDCHAR

STARTCHAR afii10032
ENCODING 190
SWIDTH 875 0
DWIDTH 11 0
BBX 10 9 1 0
BITMAP
1E00
7380
6180
C0C0
C0C0
C0C0
6180
7380
1E00
ENDCHAR

STARTCHAR afii10033
ENCODING 191
SWIDTH 854 0
DWIDTH 11 0
BBX 10 9 1 0
BITMAP
FFC0
6180
6180
6180
6180
6180
6180
6180
F3C0
ENDCHAR

STARTCHAR afii10034
ENCODING 192
SWIDTH 729 0
DWIDTH 9 0
BBX 8 9 1 0
BITMAP
FE
63
63
63
6E
60
60
60
F0
ENDCHAR

STARTCHAR afii10035
ENCODING 193
SWIDTH 802 0
DWIDTH 10 0
BBX 9 9 1 0
BITMAP
1F00
7180
6080
C000
C000
C000
6080
7180
1F00
ENDCHAR

STARTCHAR afii10036
ENCODING 194
SWIDTH 740 0
DWIDTH 10 0
BBX 10 9 0 0
BITMAP
7F80
CCC0
0C00
0C00
0C00
0C00
0C00
0C00
1E00
ENDCHAR

STARTCHAR afii10037
ENCODING 195
SWIDTH 750 0
DWIDTH 10 0
BBX 10 9 1 0
BITMAP
F1C0
6080
3100
3100
1A00
0E00
4C00
6400
3800
ENDCHAR

STARTCHAR afii10038
ENCODING 196
SWIDTH 974 0
DWIDTH 13 0
BBX 12 9 1 0
BITMAP
0F00
0600
7FE0
C630
C630
C630
7FE0
0600
0F00
ENDCHAR

STARTCHAR afii10039
ENCODING 197
SWIDTH 781 0
DWIDTH 11 0
BBX 10 9 1 0
BITMAP
FBC0
7100
3A00
1C00
0C00
0E00
1700
2380
F7C0
ENDCHAR

STARTCHAR afii10040
ENCODING 198
SWIDTH 854 0
DWIDTH 11 0
BBX 10 11 1 -2
BITMAP
F3C0
6180
6180
6180
6180
6180
6180
6180
FF80
00C0
0040
ENDCHAR

STARTCHAR afii10041
ENCODING 199
SWIDTH 854 0
DWIDTH 11 0
BBX 10 9 1 0
BITMAP
F3C0
6180
6180
6180
6380
3D80
0180
0180
03C0
ENDCHAR

STARTCHAR afii10042
ENCODING 200
SWIDTH 1125 0
DWIDTH 15 0
BBX 14 9 1 0
BITMAP
F7BC
6318
6318
6318
6318
6318
6318
6318
FFFC
ENDCHAR

STARTCHAR afii10043
ENCODING 201
SWIDTH 1125 0
DWIDTH 15 0
BBX 14 11 1 -2
BITMAP
F7BC
6318
6318
6318
6318
6318
6318
6318
FFF8
000C
0004
ENDCHAR

STARTCHAR afii10044
ENCODING 202
SWIDTH 832 0
DWIDTH 11 0
BBX 11 9 0 0
BITMAP
7E00
CC00
0C00
0C00
0FC0
0C60
0C60
0C60
1FC0
ENDCHAR

STARTCHAR afii10045
ENCODING 203
SWIDTH 1125 0
DWIDTH 14 0
BBX 13 9 1 0
BITMAP
F078
6030
6030
6030
7E30
6330
6330
6330
FE78
ENDCHAR

STARTCHAR afii10046
ENCODING 204
SWIDTH 721 0
DWIDTH 9 0
BBX 8 9 1 0
BITMAP
F0
60
60
60
7E
63
63
63
FE
ENDCHAR

STARTCHAR afii10047
ENCODING 205
SWIDTH 802 0
DWIDTH 10 0
BBX 9 9 1 0
BITMAP
FC00
C700
8300
0180
3F80
0180
8300
C700
7C00
ENDCHAR

STARTCHAR afii10048
ENCODING 206
SWIDTH 1219 0
DWIDTH 16 0
BBX 15 9 1 0
BITMAP
F0F0
639C
630C
6606
7E06
6606
630C
639C
F0F0
ENDCHAR

STARTCHAR afii10049
ENCODING 207
SWIDTH 802 0
DWIDTH 10 0
BBX 9 9 1 0
BITMAP
3F80
7300
6300
3300
1F00
1B00
3300
6300
E780
ENDCHAR

STARTCHAR afii10065
ENCODING 208
SWIDTH 563 0
DWIDTH 7 0
BBX 7 6 0 0
BITMAP
78
CC
3C
CC
CC
76
ENDCHAR

STARTCHAR afii10066
ENCODING 209
SWIDTH 583 0
DWIDTH 7 0
BBX 6 9 1 0
BITMAP
0C
70
80
B0
C8
CC
CC
C8
70
ENDCHAR

STARTCHAR afii10067
ENCODING 210
SWIDTH 573 0
DWIDTH 7 0
BBX 7 6 0 0
BITMAP
FC
66
7C
66
66
FC
ENDCHAR

STARTCHAR afii10068
ENCODING 211
SWIDTH 542 0
DWIDTH 7 0
BBX 7 6 0 0
BITMAP
FE
62
60
60
60
F0
ENDCHAR

STARTCHAR afii10069
ENCODING 212
SWIDTH 565 0
DWIDTH 7 0
BBX 7 8 0 -2
BITMAP
7E
2C
2C
4C
4C
7C
C6
82
ENDCHAR

STARTCHAR afii10070
ENCODING 213
SWIDTH 521 0
DWIDTH 7 0
BBX 6 6 1 0
BITMAP
78
CC
FC
C0
C4
78
ENDCHAR

STARTCHAR afii10072
ENCODING 214
SWIDTH 1021 0
DWIDTH 13 0
BBX 12 6 1 0
BITMAP
CF30
2640
3FC0
36C0
6660
EF70
ENDCHAR

STARTCHAR afii10073
ENCODING 215
SWIDTH 521 0
DWIDTH 7 0
BBX 6 6 1 0
BITMAP
F8
8C
38
0C
CC
78
ENDCHAR

STARTCHAR afii10074
ENCODING 216
SWIDTH 625 0
DWIDTH 8 0
BBX 8 6 0 0
BITMAP
F7
66
6E
76
66
F7
ENDCHAR

STARTCHAR afii10075
ENCODING 217
SWIDTH 625 0
DWIDTH 8 0
BBX 8 9 0 0
BITMAP
22
1C
00
F7
66
6E
76
66
F7
ENDCHAR

STARTCHAR afii10076
ENCODING 218
SWIDTH 604 0
DWIDTH 8 0
BBX 8 6 0 0
BITMAP
F3
65
78
6C
66
F7
ENDCHAR

STARTCHAR afii10077
ENCODING 219
SWIDTH 573 0
DWIDTH 8 0
BBX 8 6 0 0
BITMAP
7F
26
26
26
A6
4F
ENDCHAR

STARTCHAR afii10078
ENCODING 220
SWIDTH 781 0
DWIDTH 10 0
BBX 10 6 0 0
BITMAP
E1C0
6380
7580
5D80
4980
EBC0
ENDCHAR

STARTCHAR afii10079
ENCODING 221
SWIDTH 604 0
DWIDTH 8 0
BBX 8 6 0 0
BITMAP
F7
66
7E
66
66
EF
ENDCHAR

STARTCHAR afii10080
ENCODING 222
SWIDTH 573 0
DWIDTH 7 0
BBX 6 6 1 0
BITMAP
78
CC
CC
CC
CC
78
ENDCHAR

STARTCHAR afii10081
ENCODING 223
SWIDTH 615 0
DWIDTH 8 0
BBX 8 6 0 0
BITMAP
FF
66
66
66
66
E7
ENDCHAR

STARTCHAR afii10082
ENCODING 224
SWIDTH 615 0
DWIDTH 7 0
BBX 7 9 0 -3
BITMAP
2C
F6
66
66
76
6C
60
60
F0
ENDCHAR

STARTCHAR afii10083
ENCODING 225
SWIDTH 521 0
DWIDTH 6 0
BBX 5 6 1 0
BITMAP
78
C8
C0
C0
C8
70
ENDCHAR

STARTCHAR afii10084
ENCODING 226
SWIDTH 583 0
DWIDTH 8 0
BBX 8 6 0 0
BITMAP
7E
DB
18
18
18
3C
ENDCHAR

STARTCHAR afii10085
ENCODING 227
SWIDTH 542 0
DWIDTH 7 0
BBX 8 9 0 -3
BITMAP
F7
62
32
34
1C
08
18
50
60
ENDCHAR

STARTCHAR afii10086
ENCODING 228
SWIDTH 823 0
DWIDTH 11 0
BBX 10 12 1 -3
BITMAP
0400
1C00
0C00
0C00
7F80
CCC0
CCC0
CCC0
7F80
0C00
0C00
1E00
ENDCHAR

STARTCHAR afii10087
ENCODING 229
SWIDTH 552 0
DWIDTH 8 0
BBX 7 6 1 0
BITMAP
F6
64
38
38
4C
EE
ENDCHAR

STARTCHAR afii10088
ENCODING 230
SWIDTH 615 0
DWIDTH 8 0
BBX 8 8 0 -2
BITMAP
F7
66
66
66
66
FE
03
01
ENDCHAR

STARTCHAR afii10089
ENCODING 231
SWIDTH 594 0
DWIDTH 8 0
BBX 8 6 0 0
BITMAP
F7
66
66
3E
06
0F
ENDCHAR

STARTCHAR afii10090
ENCODING 232
SWIDTH 1022 0
DWIDTH 12 0
BBX 12 6 0 0
BITMAP
F6F0
6660
6660
6660
6660
FFF0
ENDCHAR

STARTCHAR afii10091
ENCODING 233
SWIDTH 1019 0
DWIDTH 12 0
BBX 12 8 0 -2
BITMAP
F6F0
6660
6660
6660
6660
FFE0
0030
0010
ENDCHAR

STARTCHAR afii10092
ENCODING 234
SWIDTH 729 0
DWIDTH 9 0
BBX 9 6 0 0
BITMAP
7C00
D800
1F00
1980
1980
3F00
ENDCHAR

STARTCHAR afii10093
ENCODING 235
SWIDTH 833 0
DWIDTH 11 0
BBX 11 6 0 0
BITMAP
F1E0
60C0
7CC0
66C0
66C0
FDE0
ENDCHAR

STARTCHAR afii10094
ENCODING 236
SWIDTH 563 0
DWIDTH 7 0
BBX 7 6 0 0
BITMAP
F0
60
7C
66
66
FC
ENDCHAR

STARTCHAR afii10095
ENCODING 237
SWIDTH 521 0
DWIDTH 7 0
BBX 6 6 1 0
BITMAP
F8
8C
3C
0C
CC
78
ENDCHAR

STARTCHAR afii10096
ENCODING 238
SWIDTH 854 0
DWIDTH 11 0
BBX 11 6 0 0
BITMAP
F3C0
6660
7E60
6660
6660
F3C0
ENDCHAR

STARTCHAR afii10097
ENCODING 239
SWIDTH 604 0
DWIDTH 8 0
BBX 8 6 0 0
BITMAP
3F
66
3E
36
66
CF
ENDCHAR

STARTCHAR afii61352
ENCODING 240
SWIDTH 1115 0
DWIDTH 14 0
BBX 14 9 0 0
BITMAP
70C0
3180
3938
3D6C
2D6C
276C
2738
6300
C17C
ENDCHAR

STARTCHAR afii10071
ENCODING 241
SWIDTH 521 0
DWIDTH 7 0
BBX 6 9 1 0
BITMAP
CC
CC
00
78
CC
FC
C0
C4
78
ENDCHAR

STARTCHAR afii10099
ENCODING 242
SWIDTH 594 0
DWIDTH 8 0
BBX 7 12 0 -3
BITMAP
20
60
FE
60
6C
76
66
66
F6
06
04
08
ENDCHAR

STARTCHAR afii10100
ENCODING 243
SWIDTH 542 0
DWIDTH 7 0
BBX 7 9 0 0
BITMAP
18
30
00
FE
62
60
60
60
F0
ENDCHAR

STARTCHAR afii10101
ENCODING 244
SWIDTH 521 0
DWIDTH 7 0
BBX 6 6 1 0
BITMAP
7C
C4
F0
C0
CC
78
ENDCHAR

STARTCHAR afii10102
ENCODING 245
SWIDTH 458 0
DWIDTH 6 0
BBX 5 6 1 0
BITMAP
78
C0
F0
78
18
F0
ENDCHAR

STARTCHAR afii10103
ENCODING 246
SWIDTH 333 0
DWIDTH 5 0
BBX 4 9 1 0
BITMAP
60
60
00
20
E0
60
60
60
F0
ENDCHAR

STARTCHAR afii10104
ENCODING 247
SWIDTH 333 0
DWIDTH 5 0
BBX 6 9 0 0
BITMAP
CC
CC
00
10
70
30
30
30
78
ENDCHAR

STARTCHAR afii10105
ENCODING 248
SWIDTH 313 0
DWIDTH 5 0
BBX 3 12 1 -3
BITMAP
60
60
00
20
E0
60
60
60
60
60
40
80
ENDCHAR

STARTCHAR afii10106
ENCODING 249
SWIDTH 854 0
DWIDTH 11 0
BBX 11 6 0 0
BITMAP
7F00
2600
27C0
2660
A660
4FC0
ENDCHAR

STARTCHAR afii10107
ENCODING 250
SWIDTH 854 0
DWIDTH 11 0
BBX 11 6 0 0
BITMAP
F700
6600
7FC0
6660
6660
F7C0
ENDCHAR

STARTCHAR afii10108
ENCODING 251
SWIDTH 625 0
DWIDTH 8 0
BBX 8 9 0 0
BITMAP
20
60
FE
60
6C
76
66
66
F7
ENDCHAR

STARTCHAR afii10109
ENCODING 252
SWIDTH 604 0
DWIDTH 8 0
BBX 8 9 0 0
BITMAP
0C
18
00
F3
65
78
6C
66
F7
ENDCHAR

STARTCHAR section
ENCODING 253
SWIDTH 573 0
DWIDTH 7 0
BBX 6 12 1 -3
BITMAP
38
4C
C4
E0
B0
58
68
34
1C
8C
C8
70
ENDCHAR

STARTCHAR afii10110
ENCODING 254
SWIDTH 542 0
DWIDTH 7 0
BBX 8 12 0 -3
BITMAP
22
1C
00
F7
62
32
34
1C
08
18
50
60
ENDCHAR

STARTCHAR afii10193
ENCODING 255
SWIDTH 612 0
DWIDTH 8 0
BBX 8 8 0 -2
BITMAP
E7
66
66
66
66
FF
18
18
ENDCHAR
ENDFONT
